<?xml version="1.0" encoding="utf-8"?>
<!-- Generator: Adobe Illustrator 25.2.3, SVG Export Plug-In . SVG Version: 6.00 Build 0)  --><svg id="レイヤー_1" style="enable-background:new 0 0 136 136;" version="1.1" viewBox="0 0 136 136" x="0px" xml:space="preserve" xmlns="http://www.w3.org/2000/svg" xmlns:xlink="http://www.w3.org/1999/xlink" y="0px">
  <g fill="#FFFFFF">
    <path class="st0" d="M83.9,40.2c-1.2-1.3-3.3-1.4-4.7-0.2L70,48.6c-0.7,0.6-1.1,1.5-1.1,2.4s0.4,1.8,1.1,2.4l9.3,8.6   c0.6,0.6,1.4,0.9,2.3,0.9c0.9,0,1.8-0.4,2.4-1.1c1.2-1.3,1.2-3.4-0.2-4.7L77.1,51l6.7-6.2C85.1,43.6,85.2,41.5,83.9,40.2z"></path>
    <path class="st0" d="M93,61.9c0.7,0.7,1.5,1.1,2.4,1.1c0.8,0,1.6-0.3,2.3-0.9l9.3-8.6c0.7-0.6,1.1-1.5,1.1-2.4s-0.4-1.8-1.1-2.4   L97.7,40c-1.3-1.2-3.4-1.2-4.7,0.2c-1.2,1.3-1.2,3.4,0.2,4.7l6.7,6.2l-6.7,6.2C91.8,58.5,91.7,60.6,93,61.9z"></path>
    <path class="st0" d="M140.2,39.9c0-0.1,0.1-0.2,0.1-0.3c0-0.1,0.1-0.2,0.1-0.3c0-0.1,0-0.1,0-0.2c0,0,0-0.1,0-0.1   c0-0.2,0.1-0.5,0.1-0.7c0,0,0-0.1,0-0.1c0-0.2,0-0.5-0.1-0.7c0,0,0-0.1,0-0.1c0-0.2-0.1-0.4-0.2-0.6c0,0,0-0.1,0-0.1   c-0.1-0.2-0.2-0.4-0.3-0.6c0,0,0-0.1-0.1-0.1c-0.1-0.2-0.3-0.4-0.5-0.6c0,0,0,0,0,0c0,0,0,0,0,0c-0.2-0.2-0.4-0.3-0.6-0.5   c0,0,0,0,0,0c-0.2-0.1-0.4-0.2-0.6-0.3c0,0-0.1,0-0.1,0c-0.1-0.1-0.3-0.1-0.4-0.1L60.7,13.9c-2.1-0.6-4.3,0.7-4.9,2.8   c-0.6,2.1,0.7,4.3,2.8,4.9l70.2,18.8L114.2,55c0,0,0,0,0,0c-0.2,0.2-0.4,0.4-0.5,0.6c0,0,0,0,0,0c-0.1,0.2-0.2,0.4-0.3,0.6   c0,0,0,0,0,0.1c-0.1,0.2-0.2,0.4-0.2,0.7c0,0,0,0,0,0c0,0.2-0.1,0.5-0.1,0.7c0,0,0,0,0,0v31c0,2.5-1.8,3.1-2.6,3.1   c-0.5,0-2.7-0.1-2.7-3.1V87c0-2.2-1.8-4-4-4c-2.2,0-4,1.8-4,4v1.8V102c0,2.5-1.8,3.1-2.6,3.1c-0.5,0-2.7-0.1-2.7-3.1V84.3   c0-0.3,0-0.5-0.1-0.7c0,0,0,0,0,0c0-0.2-0.1-0.5-0.2-0.7c0,0,0,0,0,0c-0.1-0.2-0.2-0.4-0.3-0.6c0,0,0,0,0,0   c-0.3-0.4-0.7-0.8-1.1-1.1c0,0,0,0,0,0c-0.2-0.1-0.4-0.2-0.6-0.3c0,0,0,0-0.1,0c-0.2-0.1-0.5-0.2-0.7-0.2c0,0,0,0,0,0   c-0.2,0-0.5-0.1-0.7-0.1s-0.5,0-0.7,0.1c0,0,0,0,0,0c-0.2,0-0.5,0.1-0.7,0.2c0,0,0,0-0.1,0c-0.2,0.1-0.4,0.2-0.6,0.3c0,0,0,0,0,0   c-0.2,0.1-0.4,0.3-0.6,0.5l-10,10l-5.9,5.9c-0.1-2.4,0.6-5.4,1.7-9.8c0.8-3.5,1.8-7.4,2.5-12c1.1-7.5-3.6-12.4-8.8-13.4   c-5-0.9-11.2,1.6-13,9.6c-0.8,3.6-2.3,9-3.1,12c-10.5,1.4-16.9,11.5-16.9,20.8c0,1.8,1.5,3.3,3.3,3.3c1.8,0,3.3-1.5,3.3-3.3   c0-6.9,4.9-14.4,12.9-14.4c1.5,0,2.8-1,3.2-2.4c0.1-0.4,2.5-9.2,3.8-14.5c0.9-3.9,3.3-4.9,5.3-4.5c2.1,0.4,4,2.4,3.5,5.9   c-0.6,4.3-1.5,8.1-2.3,11.4c-1.6,6.6-2.9,12.1-0.7,16.8l-23.4,23.4C20.3,102.4,8,71.3,8,38.3C8,27,9.4,15.8,12.3,5   c0.6-2.1-0.7-4.3-2.8-4.9C7.4-0.4,5.2,0.8,4.6,3C1.6,14.4,0,26.3,0,38.3c0,36.4,14.1,70.6,39.8,96.4c0.1,0.1,0.1,0.1,0.2,0.2   c0.8,0.8,1.8,1.2,2.8,1.2c1,0,2-0.4,2.8-1.2l37.7-37.7l3.2-3.2v8.1c0,7.2,5.5,11,10.7,11c5.2,0,10.5-4.1,10.5-11v-2.6   c0.9,0.2,1.8,0.4,2.7,0.4c5.2,0,10.5-4.1,10.5-11V59.5l18.4-18.4c0,0,0,0,0,0c0.2-0.2,0.3-0.4,0.5-0.6c0,0,0.1-0.1,0.1-0.2   C140,40.2,140.1,40,140.2,39.9z"></path>
    <path class="st0" d="M28.4,92c0.5,0,0.9-0.1,1.4-0.3c1.7-0.8,2.4-2.7,1.6-4.4c-7.2-15.4-10.8-31.9-10.8-49c0-10.2,1.3-20.3,3.9-30   c0.5-1.8-0.6-3.6-2.3-4.1c-1.8-0.5-3.6,0.6-4.1,2.3c-2.8,10.3-4.1,21-4.1,31.7c0,18.1,3.9,35.5,11.5,51.8   C25.9,91.3,27.1,92,28.4,92z"></path>
    <path class="st0" d="M36.9,77.9c0.4,0,0.8-0.1,1.1-0.2c1.7-0.6,2.6-2.5,2-4.2c-4.1-11.2-6.2-23.1-6.2-35.1c0-9,1.2-18,3.5-26.6   c0.5-1.8-0.6-3.6-2.3-4.1c-1.8-0.5-3.6,0.6-4.1,2.3c-2.5,9.2-3.7,18.7-3.7,28.3c0,12.9,2.2,25.4,6.6,37.4   C34.2,77,35.5,77.9,36.9,77.9z"></path>
    <path class="st0" d="M46.9,65.6c0.3,0,0.6,0,0.9-0.1c1.8-0.5,2.8-2.3,2.3-4.1c-2-7.5-3-15.3-3-23.2s1-15.6,3-23.2   c0.5-1.8-0.6-3.6-2.3-4.1c-1.8-0.5-3.6,0.6-4.1,2.3c-2.2,8.1-3.3,16.4-3.3,24.9s1.1,16.8,3.3,24.9C44.1,64.6,45.4,65.6,46.9,65.6z"></path>
  </g>
</svg>
